# xmcd
#
# Track frame offsets: 
#        150
#        3284
#        53498
#        94038
#        116886
#        148189
#        174813
#        237084
#        283507
#
# Disc length: 3939 seconds
#
# Revision: 0
# Processed by: cddbd v1.5.2PL0 Copyright (c) Steve Scherf et al.
# Submitted via: ExactAudioCopy v0.99pb4
#
DISCID=6d0f6109
DTITLE=Mermen - Live at the Independent, d2
DYEAR=2008
DGENRE=Psychedelic
TTITLE0=intro
TTITLE1=Blue Xoam
TTITLE2=Trapeze
TTITLE3=Over the Falls
TTITLE4=Bondage of the Sea
TTITLE5=Under the Kou Tree
TTITLE6=The Whales
TTITLE7=The Intractable Boy
TTITLE8=What Am I Always Waiting For? [Jim and Allen] 
EXTD=
EXTT0=
EXTT1=
EXTT2=
EXTT3=
EXTT4=
EXTT5=
EXTT6=
EXTT7=
EXTT8=
PLAYORDER=
